<svg width="191" height="144" viewBox="0 0 191 144" fill="none" xmlns="http://www.w3.org/2000/svg">
<path fill-rule="evenodd" clip-rule="evenodd" d="M108.602 117.347C108.12 118.31 107.879 118.791 107.519 119.143C107.2 119.454 106.817 119.691 106.396 119.836C105.919 120 105.38 120 104.301 120H86.1992C85.1202 120 84.5808 120 84.1045 119.836C83.6833 119.691 83.2997 119.454 82.9814 119.143C82.6214 118.791 82.3802 118.31 81.8977 117.347L24.4405 2.65337C23.958 1.69019 23.7168 1.2086 23.3568 0.856745C23.0385 0.545596 22.6549 0.308961 22.2337 0.163964C21.7574 0 21.218 0 20.139 0H2.9559C1.6676 0 1.02344 0 0.635498 0.270814C0.296741 0.50729 0.0705364 0.872594 0.010115 1.28076C-0.0590802 1.74819 0.228992 2.32323 0.805136 3.47331L33.3945 68.5267C33.9706 69.6768 34.2587 70.2518 34.1895 70.7192C34.1291 71.1274 33.9029 71.4927 33.5641 71.7292C33.1761 72 32.532 72 31.2437 72L8.96745 72C7.67915 72 7.035 72 6.64705 72.2708C6.3083 72.5073 6.08209 72.8726 6.02167 73.2808C5.95247 73.7482 6.24055 74.3232 6.81669 75.4733L15.7706 93.3466C16.2531 94.3098 16.4943 94.7914 16.8543 95.1432C17.1726 95.4544 17.5562 95.691 17.9774 95.836C18.4537 96 18.9931 96 20.0721 96L44.1853 95.9999C45.2642 95.9999 45.8037 95.9999 46.28 96.1639C46.7012 96.3089 47.0848 96.5455 47.4031 96.8567C47.7631 97.2085 48.0043 97.6901 48.4868 98.6533L69.8746 141.347C70.3571 142.31 70.5983 142.791 70.9583 143.143C71.2766 143.454 71.6602 143.691 72.0814 143.836C72.5577 144 73.0971 144 74.1761 144H116.324C117.403 144 117.942 144 118.419 143.836C118.84 143.691 119.223 143.454 119.542 143.143C119.902 142.791 120.143 142.31 120.626 141.347L142.013 98.6533C142.496 97.6901 142.737 97.2085 143.097 96.8567C143.415 96.5455 143.799 96.3089 144.22 96.1639C144.696 95.9999 145.236 95.9999 146.315 95.9999L170.428 96C171.507 96 172.046 96 172.523 95.836C172.944 95.691 173.327 95.4544 173.646 95.1432C174.006 94.7914 174.247 94.3098 174.73 93.3466L183.683 75.4733C184.26 74.3232 184.548 73.7482 184.478 73.2808C184.418 72.8726 184.192 72.5073 183.853 72.2708C183.465 72 182.821 72 181.533 72L159.256 72C157.968 72 157.324 72 156.936 71.7292C156.597 71.4927 156.371 71.1274 156.311 70.7192C156.241 70.2518 156.529 69.6768 157.106 68.5267L189.695 3.47331C190.271 2.32323 190.559 1.74819 190.49 1.28076C190.429 0.872593 190.203 0.50729 189.865 0.270814C189.477 0 188.832 0 187.544 0H170.361C169.282 0 168.742 0 168.266 0.163964C167.845 0.308961 167.461 0.545596 167.143 0.856746C166.783 1.2086 166.542 1.69019 166.059 2.65338L108.602 117.347Z" fill="#00FBEA"/>
</svg>
